# xmcd
#
# Track frame offsets: 
#        150
#        20872
#        39277
#        62173
#        80080
#        97221
#        120340
#        131969
#
# Disc length: 2054 seconds
#
# Revision: 3
# Processed by: cddbd v1.5.2PL0 Copyright (c) Steve Scherf et al.
# Submitted via: ExactAudioCopy v0.90b4
#
DISCID=70080408
DTITLE=Fehlfarben - Glücksmaschinen
DYEAR=2010
DGENRE=Alternative
TTITLE0=Glücksmaschinen
TTITLE1=Stadt der 1000 Tränen
TTITLE2=Neues Leben
TTITLE3=Ausgeraucht
TTITLE4=Im Sommer
TTITLE5=Vielleicht Leute 5
TTITLE6=Wir warten (Ihr habt die Uhr, wir die Zeit)
TTITLE7=Respekt?
EXTD=
EXTT0=
EXTT1=
EXTT2=
EXTT3=
EXTT4=
EXTT5=
EXTT6=
EXTT7=
PLAYORDER=
